<svg id="Layer_1" data-name="Layer 1" xmlns="http://www.w3.org/2000/svg" viewBox="0 0 152.65 180.19"><defs><style>.cls-1{fill:#efb80a;}.cls-2{fill:#efb80b;}.cls-3{fill:#efb90b;}.cls-4{fill:#efb90d;}.cls-5{fill:#efb90c;}</style></defs><path class="cls-1" d="M723.43,533.83l17.06-10,29.58,17.34,29.7-17.37,17.09,10.18V554.5L787.37,572v34.81l-17.21,10.16-17.28-10.1V571.94l-29.45-17.42Z" transform="translate(-693.8 -471.49)"/><path class="cls-1" d="M799.88,634.19V613.73l29.21-17.31V561.71l17.22-10.13V607Z" transform="translate(-693.8 -471.49)"/><path class="cls-1" d="M770.08,492.08l-29.59,17.33L723.12,499.2l46.94-27.71,47,27.67-17.34,10.28Z" transform="translate(-693.8 -471.49)"/><path class="cls-2" d="M740.26,634.16,693.8,606.92V551.59l17.14,9.95v34.8l29.32,17.33Z" transform="translate(-693.8 -471.49)"/><path class="cls-3" d="M829.43,527,812,516.55l17.39-10.14,17.1,10v20.72l-17,10Z" transform="translate(-693.8 -471.49)"/><path class="cls-2" d="M711,547.31l-17.21-10.14V516.28l17-9.85,17.33,10.08L711,526.84Z" transform="translate(-693.8 -471.49)"/><path class="cls-2" d="M770.12,631.11l16.77-9.77v20.44l-16.8,9.9-17-10V621.29Z" transform="translate(-693.8 -471.49)"/><path class="cls-4" d="M723.38,568.86l17,10v20.52l-17-10Z" transform="translate(-693.8 -471.49)"/><path class="cls-5" d="M787.57,516.59l-17.49,10.24L752.61,516.6l17.44-10.21Z" transform="translate(-693.8 -471.49)"/><path class="cls-5" d="M800.09,578.75l16.64-9.81v20.47l-16.64,9.83Z" transform="translate(-693.8 -471.49)"/></svg>