<?xml version="1.0" encoding="utf-8"?>
<!-- Generator: Adobe Illustrator 24.1.2, SVG Export Plug-In . SVG Version: 6.00 Build 0)  -->
<svg version="1.1" id="Layer_1" xmlns="http://www.w3.org/2000/svg" xmlns:xlink="http://www.w3.org/1999/xlink" x="0px" y="0px"
	 viewBox="0 0 340 540.7" style="enable-background:new 0 0 340 540.7;" xml:space="preserve">
<style type="text/css">
	.st0{fill:#133444;}
	.st1{fill:#C42370;}
	.st2{fill:#1C4D6B;}
	.st3{fill:#1D4259;}
	.st4{fill:#4B6B9A;}
	.st5{fill:#343535;}
	.st6{fill:#3E5578;}
	.st7{fill:#6DB2D8;}
	.st8{fill:#335F8A;}
	.st9{fill:#529BBA;}
</style>
<g id="Layer_2_1_">
	<g id="Layer_1-2">
		<polygon class="st0" points="23.8,276.3 34.7,271.5 170,212.7 316.2,276.3 261.3,389.7 127,408.7 26,299.7 		"/>
		<path class="st1" d="M285.8,206.3c-24.1-29.1-58.4-48-95.8-53c-0.8-0.1-1.6-0.2-2.4-0.3c-11.7-1.4-23.5-1.4-35.2,0
			c-0.8,0.1-1.6,0.2-2.4,0.3c-37.5,5-71.7,23.9-95.8,53l0,0l-6.1,10.1L38,233.2l-7.4,12.3l0,0c-0.1,0.3-0.3,0.7-0.4,1l-0.1,0.2
			l16.4,9.7L150,317.7l20,11.8V183l-20,9.1v-21.9l20-9.1l20,9.1l101.9,46.3L285.8,206.3z"/>
		<path class="st2" d="M320.7,312.7c0,48.8-23.2,94.4-59.1,123.8c-14.1,11.6-30.3,20.6-47.6,26.4c-14.2,4.7-29,7.1-43.9,7.1
			C86.8,470,19.3,396,19.3,312.7c0-12.3,1.5-24.5,4.4-36.5L170,362.8l146.2-86.5C319.2,288.2,320.7,300.5,320.7,312.7z"/>
		<polygon points="152.4,153.1 170,161.1 150,170.2 150,152 		"/>
		<polygon points="150,192.1 170,183 170,329.6 150,317.7 		"/>
		<polygon class="st3" points="170,183 170,329.6 310.1,246.7 		"/>
		<polygon class="st4" points="170,14.2 170,183 310.1,246.7 		"/>
		<path class="st5" d="M170,183v146.5l-20-11.8L30,246.7l-0.2-0.1l0.3-0.1c0.1-0.3,0.3-0.7,0.4-1l0,0l17.5-29.1L150,170.2v22
			L170,183z"/>
		<polygon class="st6" points="170,183 170,329.6 150,317.7 30,246.8 29.9,246.7 30.1,246.6 150,192.1 		"/>
		<polygon class="st7" points="170,14.2 170,183 29.9,246.7 		"/>
		<path class="st8" d="M113.3,458c2.1,0.9,4.2,1.8,6.3,2.6C117.5,459.8,115.4,459,113.3,458z"/>
		<path class="st8" d="M119.6,460.6c2.1,0.8,4.3,1.6,6.5,2.3C123.9,462.2,121.7,461.5,119.6,460.6z"/>
		<path class="st8" d="M131.6,464.7c1.7,0.5,3.3,0.9,5,1.3C135,465.6,133.3,465.1,131.6,464.7z"/>
		<path class="st7" d="M23.8,276.3L170,362.8c-2,13.2-5.5,26-10.5,38.4c-11.7,28.3-35.3,58.2-81.1,35.4l0,0
			c-36-29.4-59.1-75.1-59.1-123.9C19.3,300.5,20.8,288.2,23.8,276.3z"/>
		<path class="st9" d="M261.5,436.6l-0.4,0.3c-0.8,0.6-1.5,1.2-2.3,1.8l-0.2,0.2c-0.8,0.7-1.7,1.3-2.5,1.9c-0.9,0.7-1.8,1.4-2.8,2
			s-1.9,1.3-2.8,2s-1.7,1.1-2.5,1.7l-0.5,0.3c-0.9,0.6-1.8,1.1-2.6,1.7c-0.1,0.1-0.2,0.1-0.3,0.2c-0.9,0.6-1.8,1.1-2.7,1.6
			c-0.9,0.5-2,1.2-3,1.7c-1,0.6-2,1.1-3,1.6l-0.1,0.1c-1,0.5-2,1-3,1.5c-1,0.5-2,1-3.1,1.5s-2.1,1-3.1,1.4c-2.1,0.9-4.2,1.8-6.3,2.6
			c-2.1,0.8-4.3,1.6-6.5,2.3c-0.9,0.3-1.7,0.6-2.6,0.8c-0.9,0.3-2,0.6-2.9,0.9c-1.7,0.5-3.3,0.9-5,1.3c-0.6,0.2-1.3,0.3-1.9,0.5
			l-1.1,0.2c-0.9,0.2-1.8,0.4-2.7,0.6s-1.6,0.3-2.5,0.5s-1.5,0.3-2.3,0.4s-1.7,0.3-2.5,0.4c-0.4,0.1-0.8,0.1-1.2,0.2l-1.9,0.2
			l-1.1,0.1c-0.7,0.1-1.4,0.2-2.1,0.2c-0.9,0.1-1.7,0.2-2.6,0.2c-0.7,0-1.3,0.1-2,0.2c-0.7,0-1.2,0.1-1.8,0.1h-0.1
			c-0.7,0-1.4,0.1-2,0.1c-0.9,0-1.9,0.1-2.8,0.1c-0.9,0-1.9,0-2.9,0s-1.9,0-2.9,0s-1.9,0-2.8-0.1c-0.7,0-1.4-0.1-2.1-0.1h-0.1
			c-0.6,0-1.2-0.1-1.8-0.1c-0.6,0-1.3-0.1-2-0.2c-0.9-0.1-1.7-0.1-2.6-0.2c-0.7-0.1-1.4-0.1-2.1-0.2l-1-0.1
			c-0.6-0.1-1.3-0.2-1.9-0.2c-0.4,0-0.8-0.1-1.2-0.2c-0.8-0.1-1.7-0.2-2.5-0.4c-0.8-0.1-1.5-0.3-2.3-0.4c-0.8-0.1-1.6-0.3-2.5-0.5
			c-0.8-0.2-1.8-0.4-2.7-0.6l-1.1-0.2c-0.6-0.1-1.3-0.3-1.9-0.5c-1.7-0.4-3.3-0.9-5-1.3l-3-0.9c-0.9-0.3-1.7-0.5-2.6-0.8
			c-2.2-0.7-4.3-1.5-6.5-2.3s-4.3-1.7-6.3-2.6c-1-0.5-2.1-0.9-3.1-1.4c-1-0.5-2.1-1-3.1-1.5s-2-1-3-1.5l-0.1-0.1c-1-0.5-2-1.1-3-1.6
			c-1-0.5-2-1.1-3-1.7s-1.8-1.1-2.7-1.6l-0.3-0.2c-0.9-0.5-1.8-1.1-2.6-1.7l-0.5-0.3c-0.8-0.5-1.7-1.1-2.5-1.7s-1.9-1.3-2.8-2
			c-0.9-0.7-1.8-1.3-2.8-2c-0.9-0.7-1.7-1.3-2.5-1.9l-0.2-0.2c-0.8-0.6-1.5-1.2-2.3-1.8l-0.4-0.3c45.7,22.8,69.4-7.2,81.1-35.4
			c5-12.3,8.5-25.2,10.5-38.4c2,13.2,5.5,26,10.5,38.4C192.2,429.4,215.8,459.3,261.5,436.6z"/>
		<path class="st8" d="M203.3,466c1.7-0.4,3.4-0.9,5-1.3C206.7,465.2,205,465.6,203.3,466z"/>
		<path class="st8" d="M213.9,463c2.2-0.7,4.3-1.5,6.5-2.3C218.3,461.5,216.1,462.2,213.9,463z"/>
		<path class="st8" d="M220.4,460.6c2.1-0.8,4.2-1.7,6.3-2.6C224.7,459,222.5,459.8,220.4,460.6z"/>
		<path class="st4" d="M320.7,312.7c0,48.8-23.2,94.4-59.1,123.9c-45.7,22.8-69.4-7.2-81.1-35.4c-5-12.3-8.5-25.2-10.5-38.4
			l146.2-86.5C319.2,288.2,320.7,300.5,320.7,312.7z"/>
	</g>
</g>
<g>
	<g>
		<g>
			<g>
				<path d="M255.7,518.6h3.2V500h-3.2V518.6z"/>
			</g>
			<rect x="255.7" y="494.5" width="3.2" height="3.2"/>
			<g>
				<path d="M111.1,494.3c-3.3,0-7,1.3-7,4.7c0,2.8,3.3,3.8,7.3,4.3c5.3,0.8,10.6,2,10.6,8c0,6-5.8,8-11,8c-4.8,0-9.3-1.7-11.3-6.1
					l2.8-1.7c1.7,3.2,5.3,4.7,8.6,4.7c3.3,0,7.6-1,7.6-5c0-3.3-3.7-4.3-7.6-4.8c-5.1-0.8-10.1-2-10.1-7.5c0-5.6,5.6-7.5,10.3-7.5
					c4,0,7.8,0.8,10.1,4.8l-2.5,1.5C117.1,495.3,114.1,494.3,111.1,494.3z"/>
			</g>
			<g>
				<path d="M127.6,492v11c1.7-2.5,4.2-3.3,6.5-3.3c5.3,0,8,3.5,8,8.6v10.5h-3.2v-10.3c0-3.7-2-5.8-5.3-5.8s-6,2.7-6,6.1v10h-3.2
					V492H127.6L127.6,492z"/>
			</g>
			<g>
				<path d="M161.5,518.7v-3.5c-1.5,2.7-4.3,3.8-7,3.8c-5.5,0-9.6-3.8-9.6-10s4.3-9.8,9.6-9.8c2.8,0,5.6,1.3,7,3.8v-3.5h3v18.9
					L161.5,518.7L161.5,518.7z M154.5,502.5c-3.8,0-6.8,2.7-6.8,6.8c0,4.2,3,7,6.8,7C163.6,516.3,163.6,502.3,154.5,502.5
					L154.5,502.5z"/>
			</g>
			<g>
				<path d="M167.5,499.8h3l0.2,3.7c1.5-2.5,4.3-4,7.3-4c5.5,0.2,9.5,4,9.5,9.8c0,6-4,9.8-9.6,9.8c-2.7,0-5.6-1.2-7.1-3.8v12.3h-3
					v-27.7H167.5z M184.1,509.3c0-4.3-2.8-6.8-6.6-6.8c-4,0-6.6,2.8-6.6,6.8c0,3.8,2.8,6.8,6.6,6.8S184.1,513.6,184.1,509.3z"/>
			</g>
			<g>
				<path d="M207.3,515.6c-2,2.3-5.1,3.3-8.1,3.3c-5.8,0-10-3.8-10-9.8c0-5.6,4.2-9.8,9.8-9.8c5.8,0,10.1,3.5,9.5,11.1h-16.1
					c0.3,3.5,3.2,5.6,6.8,5.6c2.2,0,4.8-0.8,6-2.3L207.3,515.6L207.3,515.6z M205.5,507.8c-0.2-3.7-2.7-5.6-6.3-5.6
					c-3.3,0-6.1,2-6.6,5.6H205.5L205.5,507.8z"/>
			</g>
			<g>
				<path d="M221.6,494.3c-3.3,0-7,1.3-7,4.7c0,2.8,3.3,3.8,7.3,4.3c5.3,0.8,10.6,2,10.6,8c0,6-5.8,8-11,8c-4.8,0-9.3-1.7-11.3-6.1
					l2.8-1.7c1.7,3.2,5.3,4.7,8.6,4.7s7.6-1,7.6-5c0-3.3-3.7-4.3-7.6-4.8c-5.1-0.8-10.1-2-10.1-7.5c0-5.6,5.6-7.5,10.3-7.5
					c4,0,7.8,0.8,10.1,4.8l-2.5,1.5C227.6,495.3,224.6,494.3,221.6,494.3z"/>
			</g>
			<g>
				<path d="M238,491.8v11c1.7-2.5,4.2-3.3,6.5-3.3c5.3,0,8,3.5,8,8.6v10.5h-3.2v-10.3c0-3.7-2-5.8-5.3-5.8c-3.3,0-6,2.7-6,6.1v10
					h-3.2v-26.7H238L238,491.8z"/>
			</g>
			<g>
				<path d="M264.6,518.7L264.6,518.7L264.6,518.7z"/>
				<path d="M268.4,498.5c0-2.8,1.3-4.2,3.3-4.2c0,0,0,0,0.2,0l0.7-2.7c-0.3,0-0.7,0-0.8,0c-4,0-6.3,2.5-6.3,6.8v1.5h-3.7v2.8h3.7
					v15.9h3.2v-15.9h3.8V500h-3.8v-1.5H268.4z"/>
			</g>
			<path d="M284.4,515.9c-0.2,0-0.5,0-0.7,0c-2.3,0-3-1.5-3-3.7v-9.8h4v-2.7h-4V494l-3.2,0.3v5.5h-3.8v2.7h3.8v9.8
				c0,4.2,2,6.5,6,6.5c0.5,0,1,0,1.5-0.2L284.4,515.9z"/>
		</g>
	</g>
	<g>
		<path d="M63.3,505c1-0.3,2-1,2.7-1.8c1-1.2,1.3-2.5,1.3-4s-0.3-2.7-0.8-3.5c-0.5-1-1.3-1.7-2.2-2.3c-0.8-0.5-1.8-1-3-1.2
			c-1-0.2-2.2-0.3-3.2-0.3h-8.5v28.1h8.5c1.7,0,3-0.2,4.3-0.5c1.3-0.3,2.3-0.8,3.3-1.7c0.8-0.7,1.7-1.5,2.2-2.5c0.5-1,0.7-2,0.7-3.3
			c0-2.2-0.7-3.8-1.8-5C66,506,64.6,505.3,63.3,505z M63.5,501.3c-0.3,0.5-0.8,1-1.3,1.3s-1.2,0.7-1.8,0.8c-0.7,0.2-1.3,0.2-2,0.2
			H53v-9h4.5c0.8,0,1.7,0,2.5,0.2c0.8,0.2,1.5,0.5,2,0.8c0.5,0.3,1,0.8,1.3,1.3s0.5,1.3,0.5,2.2C64,500.1,63.8,500.8,63.5,501.3z
			 M53.2,506.6h5.5c2.2,0,3.8,0.5,5,1.3s1.7,2.2,1.7,3.8c0,0.8-0.2,1.7-0.5,2.3c-0.3,0.7-0.8,1.2-1.5,1.5c-0.7,0.3-1.5,0.7-2.3,0.8
			c-0.8,0.2-1.8,0.3-2.8,0.3h-5C53.2,516.8,53.2,506.6,53.2,506.6z"/>
		<path d="M86.2,501l-5.5,14.9l-6-14.9h-3.7l7.8,18.4l-1.5,3.7c-0.3,1-0.8,1.8-1.3,2.3c-0.5,0.5-1.2,0.7-2,0.7
			c-0.7,0-1.3-0.2-1.8-0.3l-0.3-0.2l-0.3,3h0.3c0.8,0.2,1.7,0.2,2.5,0.2c1.7,0,3-0.5,3.8-1.3s1.7-2,2.2-3.5l9.1-23.3h-3.3V501z"/>
	</g>
</g>
</svg>
